<svg width="500" height="500" viewBox="0 0 500 500" fill="none" xmlns="http://www.w3.org/2000/svg">
<path d="M77.66 235.6C-17.52 290.6 -17.51 379.6 77.66 434.6C172.83 489.6 327.15 489.55 422.33 434.6C517.51 379.65 517.5 290.6 422.33 235.6C327.16 180.6 172.84 180.65 77.66 235.6Z" fill="#FAFAFA"/>
<path d="M323.03 413.36L110.41 290.61L176.13 252.67L388.75 375.42L323.03 413.36Z" fill="#E0E0E0"/>
<path d="M120.17 365.84C134.64 374.29 134.64 387.99 120.17 396.43C105.7 404.87 82.24 404.88 67.77 396.43C53.3 387.98 53.3 374.29 67.77 365.84C82.24 357.39 105.7 357.39 120.17 365.84Z" fill="#E0E0E0"/>
<path d="M142.24 147.95V187.09L194.95 156.64L194.97 117.5L142.24 147.95Z" fill="#F87171"/>
<path d="M142.24 187.09L202.5 221.88L255.25 191.44L194.95 156.64L142.24 187.09Z" fill="#F87171"/>
<path opacity="0.3" d="M142.24 187.09L202.5 221.88L255.25 191.44L194.95 156.64L142.24 187.09Z" fill="white"/>
<path d="M255.25 191.44L255.23 230.58L202.5 261.03V221.88L255.25 191.44Z" fill="#F87171"/>
<path d="M202.5 261.03L262.76 295.82L315.5 265.38L255.23 230.58L202.5 261.03Z" fill="#F87171"/>
<path opacity="0.3" d="M202.5 261.03L262.76 295.82L315.5 265.38L255.23 230.58L202.5 261.03Z" fill="white"/>
<path d="M315.5 265.38V304.52L262.76 334.96V295.82L315.5 265.38Z" fill="#F87171"/>
<path d="M262.76 334.96L323.03 369.76L375.76 339.32L315.5 304.52L262.76 334.96Z" fill="#F87171"/>
<path opacity="0.3" d="M262.76 334.96L323.03 369.76L375.76 339.32L315.5 304.52L262.76 334.96Z" fill="white"/>
<path d="M375.76 339.32V378.46L323.03 408.9V369.76L375.76 339.32Z" fill="#F87171"/>
<path d="M142.24 147.95L85.74 115.33L66.9 126.2L74.44 78.36L157.3 74.01L138.47 84.88L194.97 117.5L142.24 147.95Z" fill="#F87171"/>
<path opacity="0.3" d="M142.24 147.95L85.74 115.33L66.9 126.2L74.44 78.36L157.3 74.01L138.47 84.88L194.97 117.5L142.24 147.95Z" fill="white"/>
<path d="M262.76 334.96V295.82L202.5 261.03V221.88L142.24 187.09V147.95L85.74 115.33L66.9 126.2V134.9L85.74 124.03L134.7 152.29V191.44L194.97 226.24V265.38L255.23 300.17V339.31L315.5 374.11V404.55L323.03 408.9V369.76L262.76 334.96Z" fill="#F87171"/>
<path opacity="0.3" d="M262.76 334.96V295.82L202.5 261.03V221.88L142.24 187.09V147.95L85.74 115.33L66.9 126.2V134.9L85.74 124.03L134.7 152.29V191.44L194.97 226.24V265.38L255.23 300.17V339.31L315.5 374.11V404.55L323.03 408.9V369.76L262.76 334.96Z" fill="black"/>
<path d="M157.3 74.01V82.71L146 89.23L138.47 84.88L157.3 74.01Z" fill="#F87171"/>
<path opacity="0.3" d="M157.3 74.01V82.71L146 89.23L138.47 84.88L157.3 74.01Z" fill="black"/>
<path d="M173.93 179.4H174C174.951 179.211 175.921 179.137 176.89 179.18C176.968 179.183 177.044 179.155 177.102 179.103C177.16 179.05 177.195 178.978 177.2 178.9C177.2 178.821 177.17 178.745 177.116 178.687C177.062 178.63 176.989 178.595 176.91 178.59C175.904 178.549 174.898 178.626 173.91 178.82C173.834 178.837 173.767 178.883 173.724 178.948C173.681 179.014 173.665 179.093 173.68 179.17C173.694 179.229 173.725 179.283 173.769 179.324C173.814 179.365 173.87 179.391 173.93 179.4ZM168.11 184.34C168.107 183.627 168.32 182.93 168.72 182.34C168.75 182.274 168.755 182.2 168.734 182.131C168.714 182.062 168.669 182.003 168.608 181.964C168.548 181.925 168.475 181.909 168.404 181.92C168.332 181.93 168.267 181.966 168.22 182.02C167.762 182.703 167.518 183.507 167.52 184.33C167.522 184.738 167.573 185.144 167.67 185.54C167.689 185.602 167.727 185.657 167.779 185.697C167.831 185.736 167.895 185.758 167.96 185.76H168C168.077 185.741 168.143 185.692 168.184 185.625C168.225 185.558 168.238 185.477 168.22 185.4C168.141 185.052 168.104 184.696 168.11 184.34ZM174.58 192.54C174.16 192.29 173.76 192.04 173.4 191.79C172.937 191.479 172.49 191.146 172.06 190.79C172.006 190.736 171.932 190.705 171.855 190.705C171.778 190.705 171.704 190.736 171.65 190.79C171.622 190.817 171.599 190.85 171.583 190.886C171.568 190.922 171.56 190.961 171.56 191C171.56 191.039 171.568 191.078 171.583 191.114C171.599 191.15 171.622 191.183 171.65 191.21C172.09 191.589 172.55 191.943 173.03 192.27C173.41 192.53 173.82 192.79 174.25 193.05C174.3 193.059 174.35 193.059 174.4 193.05C174.452 193.048 174.503 193.033 174.549 193.007C174.594 192.981 174.632 192.944 174.66 192.9C174.69 192.84 174.699 192.771 174.685 192.706C174.67 192.64 174.633 192.581 174.58 192.54ZM178.35 194.54C177.42 194.1 176.56 193.67 175.81 193.27C175.776 193.252 175.739 193.241 175.7 193.238C175.662 193.235 175.623 193.239 175.587 193.251C175.55 193.262 175.516 193.281 175.486 193.306C175.457 193.33 175.433 193.361 175.415 193.395C175.397 193.429 175.386 193.466 175.383 193.505C175.38 193.543 175.384 193.582 175.396 193.618C175.407 193.655 175.426 193.689 175.451 193.718C175.476 193.748 175.506 193.772 175.54 193.79C176.29 194.2 177.16 194.63 178.1 195.07C178.139 195.079 178.181 195.079 178.22 195.07C178.277 195.071 178.332 195.056 178.38 195.025C178.428 194.995 178.467 194.952 178.49 194.9C178.508 194.865 178.519 194.826 178.522 194.786C178.525 194.747 178.52 194.707 178.507 194.669C178.494 194.632 178.473 194.598 178.446 194.568C178.419 194.539 178.386 194.516 178.35 194.5V194.54ZM168.85 186.97C168.832 186.935 168.808 186.905 168.778 186.88C168.748 186.855 168.713 186.836 168.676 186.825C168.638 186.814 168.599 186.81 168.56 186.814C168.521 186.819 168.484 186.831 168.45 186.85C168.38 186.886 168.327 186.948 168.303 187.023C168.279 187.098 168.285 187.179 168.32 187.25C168.887 188.273 169.591 189.215 170.41 190.05C170.465 190.106 170.541 190.139 170.62 190.14C170.659 190.142 170.697 190.136 170.733 190.122C170.77 190.108 170.802 190.087 170.83 190.06C170.885 190.004 170.916 189.928 170.916 189.85C170.916 189.771 170.885 189.696 170.83 189.64C170.044 188.836 169.377 187.923 168.85 186.93V186.97ZM172.78 179.43C172.751 179.358 172.696 179.299 172.625 179.266C172.555 179.232 172.474 179.227 172.4 179.25C171.918 179.414 171.448 179.608 170.99 179.83C170.455 180.086 169.949 180.398 169.48 180.76C169.449 180.783 169.422 180.811 169.403 180.844C169.383 180.877 169.369 180.914 169.364 180.952C169.358 180.99 169.36 181.029 169.37 181.067C169.38 181.104 169.397 181.139 169.42 181.17C169.471 181.23 169.542 181.268 169.62 181.278C169.698 181.287 169.777 181.266 169.84 181.22C170.283 180.892 170.755 180.604 171.25 180.36C171.685 180.15 172.133 179.966 172.59 179.81C172.632 179.798 172.672 179.777 172.705 179.749C172.739 179.72 172.765 179.684 172.783 179.644C172.801 179.604 172.811 179.561 172.81 179.517C172.809 179.473 172.799 179.429 172.78 179.39V179.43ZM201.15 195.66C201.99 196.13 202.81 196.58 203.6 197C203.646 197.01 203.694 197.01 203.74 197C203.806 197.003 203.872 196.982 203.925 196.943C203.979 196.903 204.017 196.846 204.033 196.782C204.05 196.717 204.043 196.649 204.015 196.589C203.988 196.528 203.94 196.479 203.88 196.45C203.09 196.03 202.28 195.59 201.44 195.11C201.37 195.073 201.289 195.063 201.213 195.084C201.137 195.104 201.072 195.153 201.03 195.22C200.994 195.289 200.987 195.37 201.009 195.444C201.031 195.519 201.082 195.582 201.15 195.62V195.66ZM208.48 199.66C208.91 199.93 209.28 200.17 209.62 200.42C209.973 200.679 210.307 200.963 210.62 201.27C210.647 201.298 210.68 201.321 210.716 201.336C210.752 201.352 210.791 201.36 210.83 201.36C210.91 201.354 210.985 201.318 211.04 201.26C211.094 201.206 211.125 201.132 211.125 201.055C211.125 200.978 211.094 200.904 211.04 200.85C210.693 200.524 210.325 200.22 209.94 199.94C209.59 199.69 209.2 199.43 208.75 199.16C208.684 199.12 208.604 199.108 208.529 199.127C208.454 199.146 208.39 199.194 208.35 199.26C208.31 199.326 208.298 199.406 208.317 199.481C208.336 199.556 208.384 199.62 208.45 199.66H208.48ZM178.33 179.35C179.292 179.498 180.24 179.732 181.16 180.05H181.25C181.319 180.048 181.386 180.022 181.439 179.977C181.491 179.932 181.526 179.869 181.538 179.801C181.55 179.733 181.538 179.662 181.503 179.602C181.469 179.541 181.415 179.495 181.35 179.47C180.396 179.142 179.416 178.898 178.42 178.74C178.381 178.733 178.341 178.734 178.303 178.743C178.264 178.751 178.228 178.768 178.196 178.792C178.164 178.815 178.137 178.845 178.118 178.879C178.098 178.913 178.085 178.951 178.08 178.99C178.074 179.028 178.076 179.067 178.086 179.104C178.096 179.142 178.112 179.177 178.136 179.207C178.159 179.238 178.188 179.264 178.222 179.283C178.255 179.303 178.292 179.315 178.33 179.32V179.35ZM198.73 194.23L199.93 194.95C199.979 194.964 200.031 194.964 200.08 194.95C200.133 194.95 200.184 194.936 200.23 194.91C200.276 194.883 200.314 194.846 200.34 194.8C200.359 194.767 200.372 194.73 200.377 194.691C200.382 194.653 200.379 194.614 200.369 194.577C200.359 194.539 200.341 194.505 200.317 194.474C200.294 194.444 200.264 194.419 200.23 194.4L199.04 193.68C198.561 193.374 198.1 193.04 197.66 192.68C197.595 192.635 197.516 192.616 197.438 192.627C197.36 192.638 197.289 192.678 197.24 192.74C197.217 192.771 197.2 192.806 197.19 192.843C197.18 192.88 197.178 192.919 197.184 192.958C197.189 192.996 197.203 193.032 197.223 193.065C197.242 193.098 197.269 193.127 197.3 193.15C197.77 193.57 198.26 193.9 198.73 194.2V194.23ZM192.14 188.15L192.36 188.39C192.417 188.451 192.496 188.487 192.58 188.49C192.654 188.487 192.725 188.459 192.78 188.41C192.834 188.356 192.865 188.282 192.865 188.205C192.865 188.128 192.834 188.054 192.78 188L192.56 187.75C191.88 186.99 191.17 186.2 190.46 185.46C190.435 185.425 190.403 185.396 190.366 185.374C190.328 185.353 190.287 185.34 190.244 185.336C190.201 185.332 190.158 185.337 190.118 185.351C190.077 185.365 190.04 185.388 190.009 185.417C189.978 185.447 189.954 185.483 189.938 185.523C189.922 185.563 189.914 185.606 189.916 185.648C189.918 185.691 189.93 185.733 189.949 185.771C189.969 185.81 189.996 185.843 190.03 185.87C190.76 186.57 191.46 187.35 192.14 188.12V188.15ZM195.96 192.15C195.986 192.176 196.017 192.197 196.052 192.211C196.086 192.224 196.123 192.231 196.16 192.23C196.202 192.231 196.243 192.222 196.281 192.205C196.319 192.188 196.353 192.162 196.38 192.13C196.408 192.104 196.431 192.072 196.446 192.037C196.461 192.001 196.469 191.963 196.469 191.925C196.469 191.886 196.461 191.848 196.446 191.813C196.431 191.778 196.408 191.746 196.38 191.72C195.66 191.06 194.9 190.29 193.98 189.3C193.924 189.245 193.849 189.214 193.77 189.214C193.691 189.214 193.616 189.245 193.56 189.3C193.506 189.354 193.475 189.428 193.475 189.505C193.475 189.582 193.506 189.656 193.56 189.71C194.332 190.541 195.147 191.332 196 192.08L195.96 192.15ZM187.56 183.62C187.98 183.95 188.4 184.31 188.84 184.72C188.896 184.766 188.967 184.791 189.04 184.79C189.081 184.79 189.121 184.782 189.159 184.767C189.197 184.751 189.231 184.729 189.26 184.7C189.315 184.644 189.346 184.568 189.346 184.49C189.346 184.411 189.315 184.336 189.26 184.28C188.81 183.86 188.38 183.49 187.94 183.15C187.6 182.88 187.19 182.58 186.73 182.26C186.665 182.225 186.589 182.215 186.517 182.232C186.446 182.249 186.383 182.292 186.34 182.353C186.298 182.413 186.28 182.487 186.289 182.561C186.298 182.634 186.334 182.701 186.39 182.75C186.85 183.06 187.24 183.35 187.58 183.62H187.56ZM201.14 205.94C200.576 205.687 200.029 205.4 199.5 205.08L198.36 204.35C198.294 204.32 198.22 204.315 198.151 204.336C198.082 204.356 198.023 204.401 197.984 204.462C197.945 204.522 197.93 204.595 197.94 204.666C197.95 204.737 197.986 204.803 198.04 204.85C198.42 205.1 198.8 205.34 199.2 205.58C199.747 205.915 200.315 206.216 200.9 206.48C200.939 206.489 200.981 206.489 201.02 206.48C201.078 206.479 201.134 206.461 201.181 206.43C201.229 206.398 201.267 206.353 201.29 206.3C201.312 206.262 201.325 206.221 201.329 206.178C201.333 206.135 201.328 206.091 201.314 206.05C201.3 206.01 201.277 205.972 201.247 205.941C201.217 205.91 201.18 205.886 201.14 205.87V205.94ZM206.5 207.13C205.272 207.16 204.048 206.981 202.88 206.6C202.843 206.588 202.803 206.583 202.764 206.587C202.725 206.59 202.687 206.602 202.652 206.62C202.617 206.639 202.587 206.665 202.563 206.696C202.538 206.726 202.52 206.762 202.51 206.8C202.488 206.874 202.495 206.954 202.53 207.023C202.566 207.092 202.627 207.145 202.7 207.17C203.839 207.53 205.025 207.719 206.22 207.73H206.52C206.559 207.73 206.597 207.722 206.633 207.707C206.669 207.692 206.702 207.669 206.729 207.641C206.756 207.613 206.777 207.58 206.791 207.544C206.805 207.508 206.811 207.469 206.81 207.43C206.819 207.384 206.818 207.338 206.806 207.293C206.795 207.248 206.773 207.206 206.743 207.171C206.714 207.135 206.676 207.107 206.634 207.088C206.592 207.069 206.546 207.059 206.5 207.06V207.13ZM182.24 196.31L179.64 195.16C179.568 195.129 179.487 195.128 179.415 195.156C179.342 195.184 179.283 195.239 179.25 195.31C179.233 195.345 179.223 195.382 179.221 195.421C179.219 195.459 179.225 195.498 179.238 195.534C179.251 195.571 179.271 195.604 179.297 195.632C179.323 195.661 179.355 195.684 179.39 195.7C180.24 196.08 181.12 196.47 182.01 196.85C182.049 196.86 182.091 196.86 182.13 196.85C182.198 196.851 182.264 196.828 182.317 196.785C182.37 196.742 182.406 196.682 182.419 196.616C182.432 196.549 182.421 196.48 182.389 196.42C182.356 196.361 182.303 196.315 182.24 196.29V196.31ZM212 201.9C211.954 201.837 211.886 201.795 211.809 201.782C211.733 201.769 211.654 201.786 211.59 201.83C211.558 201.852 211.531 201.88 211.51 201.913C211.489 201.945 211.475 201.982 211.468 202.02C211.462 202.058 211.463 202.097 211.472 202.135C211.481 202.173 211.497 202.209 211.52 202.24C211.865 202.693 212.064 203.241 212.09 203.81C212.091 204.065 212.036 204.318 211.93 204.55C211.913 204.585 211.903 204.622 211.901 204.661C211.899 204.699 211.905 204.738 211.918 204.774C211.931 204.811 211.951 204.844 211.977 204.872C212.003 204.901 212.035 204.924 212.07 204.94C212.113 204.95 212.157 204.95 212.2 204.94C212.256 204.939 212.311 204.922 212.359 204.892C212.406 204.862 212.445 204.82 212.47 204.77C212.61 204.455 212.681 204.114 212.68 203.77C212.644 203.093 212.407 202.442 212 201.9ZM211.14 205.51C210.792 205.784 210.412 206.015 210.01 206.2C209.465 206.471 208.892 206.679 208.3 206.82C208.223 206.839 208.157 206.887 208.116 206.955C208.075 207.022 208.062 207.103 208.08 207.18C208.096 207.244 208.133 207.301 208.186 207.341C208.239 207.381 208.304 207.402 208.37 207.4H208.44C209.072 207.243 209.686 207.018 210.27 206.73C210.711 206.526 211.128 206.27 211.51 205.97C211.538 205.943 211.561 205.91 211.577 205.874C211.592 205.838 211.6 205.799 211.6 205.76C211.6 205.721 211.592 205.682 211.577 205.646C211.561 205.61 211.538 205.577 211.51 205.55C211.465 205.504 211.406 205.475 211.342 205.468C211.278 205.461 211.214 205.475 211.16 205.51H211.14ZM207.55 198.42L205.09 197.09C205.021 197.054 204.94 197.046 204.866 197.069C204.791 197.091 204.728 197.142 204.69 197.21C204.671 197.244 204.659 197.281 204.655 197.32C204.65 197.359 204.654 197.398 204.665 197.435C204.676 197.473 204.695 197.507 204.72 197.537C204.745 197.567 204.775 197.592 204.81 197.61C205.69 198.08 206.51 198.51 207.26 198.93C207.306 198.944 207.354 198.944 207.4 198.93C207.453 198.932 207.506 198.919 207.552 198.893C207.598 198.866 207.635 198.827 207.66 198.78C207.689 198.719 207.697 198.649 207.68 198.584C207.664 198.518 207.625 198.46 207.57 198.42H207.55ZM194.92 202.05C194.852 202.009 194.771 201.997 194.694 202.016C194.618 202.034 194.551 202.083 194.51 202.15C194.49 202.183 194.477 202.219 194.471 202.257C194.465 202.295 194.467 202.334 194.477 202.371C194.486 202.408 194.502 202.443 194.525 202.474C194.548 202.504 194.577 202.53 194.61 202.55C195.47 203.08 196.24 203.55 196.89 204.02C196.942 204.034 196.998 204.034 197.05 204.02C197.099 204.02 197.147 204.008 197.191 203.985C197.234 203.962 197.272 203.93 197.3 203.89C197.343 203.825 197.358 203.745 197.343 203.669C197.328 203.592 197.284 203.524 197.22 203.48C196.58 203.09 195.81 202.58 194.94 202.05H194.92ZM185.26 181.93C185.312 181.93 185.362 181.917 185.408 181.893C185.453 181.868 185.492 181.833 185.52 181.79C185.558 181.722 185.569 181.641 185.551 181.565C185.532 181.489 185.485 181.423 185.42 181.38C184.556 180.868 183.661 180.411 182.74 180.01C182.705 179.993 182.666 179.984 182.627 179.983C182.588 179.981 182.55 179.988 182.513 180.002C182.477 180.016 182.443 180.037 182.415 180.064C182.387 180.091 182.365 180.124 182.35 180.16C182.333 180.195 182.324 180.234 182.323 180.273C182.322 180.312 182.328 180.35 182.342 180.387C182.356 180.423 182.377 180.456 182.404 180.484C182.432 180.512 182.464 180.535 182.5 180.55C183.398 180.941 184.269 181.388 185.11 181.89C185.161 181.921 185.221 181.935 185.28 181.93H185.26ZM186.17 197.93C185.28 197.56 184.4 197.2 183.54 196.83C183.467 196.8 183.385 196.8 183.312 196.83C183.239 196.86 183.181 196.917 183.15 196.99C183.134 197.025 183.125 197.063 183.125 197.102C183.124 197.141 183.132 197.179 183.147 197.215C183.162 197.251 183.184 197.283 183.212 197.31C183.24 197.336 183.274 197.357 183.31 197.37L185.94 198.47C185.976 198.479 186.014 198.479 186.05 198.47C186.119 198.474 186.187 198.452 186.242 198.411C186.296 198.369 186.334 198.308 186.349 198.241C186.363 198.174 186.353 198.103 186.32 198.043C186.288 197.982 186.234 197.935 186.17 197.91V197.93ZM193.73 201.4C192.96 200.96 192.16 200.55 191.3 200.14C191.231 200.108 191.152 200.103 191.079 200.128C191.007 200.152 190.946 200.203 190.91 200.27C190.876 200.342 190.871 200.424 190.897 200.499C190.924 200.574 190.978 200.635 191.05 200.67C191.89 201.08 192.68 201.48 193.45 201.91C193.496 201.924 193.544 201.924 193.59 201.91C193.643 201.91 193.694 201.896 193.74 201.87C193.786 201.843 193.824 201.806 193.85 201.76C193.87 201.727 193.883 201.691 193.889 201.653C193.895 201.615 193.893 201.576 193.883 201.539C193.874 201.502 193.858 201.467 193.835 201.436C193.812 201.405 193.783 201.379 193.75 201.36L193.73 201.4ZM190.05 199.56C189.66 199.38 189.24 199.2 188.8 199.02L187.48 198.47C187.41 198.454 187.338 198.464 187.274 198.497C187.211 198.53 187.162 198.585 187.136 198.651C187.109 198.717 187.107 198.791 187.13 198.858C187.153 198.926 187.199 198.983 187.26 199.02L188.57 199.56C189 199.74 189.42 199.92 189.81 200.1C189.849 200.109 189.89 200.109 189.93 200.1C189.988 200.102 190.045 200.085 190.094 200.053C190.142 200.021 190.179 199.974 190.2 199.92C190.219 199.885 190.23 199.847 190.234 199.808C190.237 199.769 190.233 199.729 190.221 199.692C190.209 199.655 190.189 199.62 190.163 199.59C190.137 199.561 190.106 199.537 190.07 199.52L190.05 199.56Z" fill="white"/>
<path d="M255.33 255C254.81 254.81 254.33 254.61 253.83 254.41C253.33 254.21 252.9 254 252.39 253.75C252.355 253.733 252.318 253.723 252.279 253.721C252.24 253.719 252.202 253.725 252.166 253.738C252.129 253.751 252.096 253.771 252.067 253.797C252.039 253.823 252.016 253.855 252 253.89C251.965 253.96 251.959 254.042 251.983 254.116C252.007 254.191 252.06 254.254 252.13 254.29C252.65 254.54 253.13 254.76 253.6 254.95C254.07 255.14 254.6 255.36 255.13 255.56H255.23C255.291 255.558 255.35 255.538 255.4 255.502C255.45 255.467 255.488 255.417 255.51 255.36C255.53 255.288 255.523 255.212 255.489 255.145C255.456 255.079 255.399 255.027 255.33 255ZM255.21 243.18C255.205 243.103 255.172 243.03 255.116 242.977C255.061 242.923 254.987 242.892 254.91 242.89C253.689 242.917 252.475 243.078 251.29 243.37C251.213 243.389 251.147 243.437 251.106 243.505C251.065 243.572 251.052 243.653 251.07 243.73C251.089 243.792 251.127 243.847 251.179 243.887C251.231 243.926 251.295 243.948 251.36 243.95H251.43C252.573 243.67 253.743 243.516 254.92 243.49C254.961 243.49 255.001 243.482 255.038 243.465C255.076 243.449 255.109 243.425 255.136 243.395C255.164 243.364 255.184 243.329 255.197 243.29C255.21 243.251 255.214 243.21 255.21 243.17V243.18ZM260 256.51C258.94 256.19 257.9 255.86 256.91 255.51C256.873 255.497 256.833 255.492 256.794 255.495C256.754 255.498 256.716 255.508 256.681 255.526C256.645 255.544 256.614 255.568 256.588 255.598C256.562 255.628 256.542 255.662 256.53 255.7C256.518 255.737 256.513 255.775 256.516 255.814C256.518 255.853 256.529 255.891 256.547 255.925C256.565 255.96 256.589 255.99 256.619 256.015C256.648 256.04 256.683 256.059 256.72 256.07C257.72 256.41 258.72 256.73 259.83 257.07H259.92C259.983 257.069 260.044 257.048 260.094 257.01C260.144 256.972 260.181 256.92 260.2 256.86C260.219 256.787 260.208 256.71 260.171 256.644C260.133 256.579 260.072 256.531 260 256.51ZM251 253.01C250.077 252.512 249.201 251.933 248.38 251.28C248.326 251.226 248.252 251.195 248.175 251.195C248.098 251.195 248.024 251.226 247.97 251.28C247.942 251.307 247.919 251.34 247.903 251.376C247.888 251.412 247.88 251.451 247.88 251.49C247.88 251.529 247.888 251.568 247.903 251.604C247.919 251.64 247.942 251.673 247.97 251.7C248.815 252.375 249.719 252.974 250.67 253.49C250.716 253.504 250.764 253.504 250.81 253.49C250.862 253.489 250.914 253.475 250.959 253.448C251.005 253.422 251.043 253.385 251.07 253.34C251.095 253.283 251.102 253.22 251.089 253.159C251.077 253.098 251.045 253.042 251 253V253.01ZM260.34 243.33C259.15 243.117 257.947 242.977 256.74 242.91C256.701 242.907 256.661 242.912 256.624 242.925C256.586 242.938 256.552 242.957 256.522 242.983C256.492 243.009 256.468 243.041 256.45 243.076C256.433 243.112 256.423 243.15 256.42 243.19C256.42 243.267 256.448 243.342 256.5 243.399C256.552 243.456 256.623 243.492 256.7 243.5C257.884 243.568 259.062 243.705 260.23 243.91C260.3 243.911 260.369 243.888 260.423 243.844C260.478 243.8 260.516 243.739 260.53 243.67C260.541 243.599 260.528 243.526 260.491 243.464C260.455 243.402 260.398 243.355 260.33 243.33H260.34ZM264.64 257.92L261.7 257L261.51 256.94C261.473 256.928 261.433 256.923 261.394 256.927C261.355 256.93 261.317 256.942 261.282 256.96C261.247 256.979 261.217 257.005 261.193 257.036C261.168 257.066 261.15 257.102 261.14 257.14C261.121 257.215 261.131 257.295 261.168 257.364C261.205 257.433 261.266 257.485 261.34 257.51L261.53 257.56L264.46 258.44H264.54C264.609 258.436 264.674 258.409 264.725 258.363C264.776 258.317 264.809 258.254 264.82 258.186C264.83 258.118 264.817 258.049 264.783 257.989C264.748 257.93 264.694 257.884 264.63 257.86L264.64 257.92ZM278.48 253.32C278.536 253.372 278.609 253.401 278.685 253.401C278.761 253.401 278.834 253.372 278.89 253.32C278.942 253.264 278.971 253.191 278.971 253.115C278.971 253.039 278.942 252.965 278.89 252.91C277.99 252.19 277.09 251.47 276.2 250.78C276.136 250.732 276.056 250.712 275.978 250.723C275.899 250.734 275.828 250.776 275.78 250.84C275.757 250.871 275.74 250.906 275.73 250.943C275.72 250.98 275.718 251.019 275.724 251.058C275.729 251.096 275.743 251.132 275.763 251.165C275.782 251.198 275.809 251.227 275.84 251.25C276.68 251.89 277.57 252.6 278.47 253.32H278.48ZM246.32 248.08C246.32 247.905 246.34 247.73 246.38 247.56C246.391 247.522 246.393 247.483 246.388 247.445C246.384 247.406 246.371 247.369 246.351 247.335C246.332 247.302 246.306 247.272 246.274 247.249C246.243 247.226 246.208 247.209 246.17 247.2C246.093 247.184 246.014 247.198 245.947 247.239C245.88 247.28 245.831 247.345 245.81 247.42C245.759 247.636 245.732 247.858 245.73 248.08C245.785 249.022 246.171 249.915 246.82 250.6C246.881 250.662 246.963 250.698 247.05 250.7C247.108 250.702 247.165 250.687 247.213 250.656C247.262 250.626 247.301 250.581 247.325 250.529C247.348 250.476 247.356 250.418 247.346 250.361C247.336 250.304 247.31 250.252 247.27 250.21C246.706 249.638 246.365 248.882 246.31 248.08H246.32ZM265.59 244.68C264.46 244.3 263.28 243.97 262.11 243.68C262.072 243.67 262.032 243.667 261.993 243.673C261.954 243.678 261.916 243.692 261.883 243.712C261.849 243.733 261.82 243.76 261.797 243.792C261.774 243.825 261.758 243.861 261.75 243.9C261.735 243.977 261.751 244.056 261.794 244.122C261.837 244.187 261.904 244.233 261.98 244.25C263.13 244.52 264.28 244.85 265.4 245.25H265.5C265.569 245.246 265.634 245.219 265.685 245.173C265.736 245.127 265.769 245.064 265.78 244.996C265.79 244.928 265.777 244.859 265.743 244.799C265.708 244.74 265.654 244.694 265.59 244.67V244.68ZM286.81 259.18C287.65 259.63 288.45 260.03 289.21 260.41C289.253 260.419 289.297 260.419 289.34 260.41C289.395 260.411 289.45 260.396 289.498 260.368C289.545 260.34 289.584 260.299 289.61 260.25C289.643 260.179 289.647 260.099 289.623 260.024C289.599 259.95 289.548 259.888 289.48 259.85C288.72 259.48 287.92 259.08 287.09 258.63C287.056 258.603 287.016 258.583 286.973 258.573C286.93 258.563 286.886 258.562 286.843 258.571C286.8 258.58 286.76 258.598 286.724 258.624C286.689 258.65 286.66 258.684 286.639 258.723C286.618 258.761 286.606 258.804 286.604 258.848C286.601 258.892 286.609 258.935 286.625 258.976C286.641 259.017 286.666 259.054 286.698 259.084C286.73 259.114 286.768 259.136 286.81 259.15V259.18ZM271.64 248.24C272.51 248.79 273.42 249.43 274.43 250.17C274.483 250.208 274.545 250.229 274.61 250.23C274.657 250.23 274.703 250.219 274.744 250.198C274.786 250.177 274.822 250.147 274.85 250.11C274.873 250.079 274.889 250.043 274.898 250.005C274.907 249.967 274.908 249.928 274.902 249.89C274.895 249.852 274.881 249.815 274.86 249.783C274.839 249.75 274.812 249.722 274.78 249.7C273.78 248.94 272.83 248.3 271.95 247.7C271.918 247.678 271.882 247.663 271.845 247.656C271.807 247.649 271.768 247.649 271.73 247.658C271.693 247.666 271.657 247.682 271.626 247.705C271.595 247.728 271.569 247.757 271.55 247.79C271.521 247.823 271.499 247.862 271.487 247.904C271.475 247.946 271.473 247.991 271.48 248.034C271.488 248.078 271.505 248.119 271.531 248.154C271.557 248.19 271.591 248.219 271.63 248.24H271.64ZM246.87 246.41C246.912 246.409 246.953 246.4 246.991 246.383C247.028 246.366 247.062 246.341 247.09 246.31C247.434 245.93 247.823 245.594 248.25 245.31C248.726 244.98 249.235 244.702 249.77 244.48C249.806 244.465 249.838 244.442 249.866 244.414C249.893 244.386 249.914 244.353 249.928 244.317C249.942 244.28 249.948 244.242 249.947 244.203C249.946 244.164 249.937 244.125 249.92 244.09C249.906 244.054 249.885 244.022 249.858 243.995C249.83 243.968 249.798 243.947 249.762 243.933C249.727 243.919 249.689 243.912 249.65 243.913C249.612 243.914 249.575 243.924 249.54 243.94C248.972 244.179 248.43 244.474 247.92 244.82C247.457 245.131 247.031 245.493 246.65 245.9C246.595 245.956 246.564 246.031 246.564 246.11C246.564 246.188 246.595 246.264 246.65 246.32C246.676 246.349 246.709 246.373 246.745 246.388C246.781 246.404 246.821 246.411 246.86 246.41H246.87ZM294.26 262.77C294.232 262.744 294.199 262.723 294.163 262.71C294.126 262.696 294.088 262.69 294.049 262.691C294.011 262.693 293.973 262.702 293.938 262.718C293.903 262.734 293.871 262.757 293.845 262.785C293.819 262.813 293.798 262.846 293.785 262.882C293.771 262.919 293.765 262.957 293.767 262.995C293.768 263.034 293.777 263.072 293.793 263.107C293.809 263.142 293.832 263.174 293.86 263.2C294.198 263.455 294.481 263.776 294.691 264.144C294.901 264.512 295.033 264.919 295.08 265.34C295.08 265.378 295.088 265.417 295.103 265.452C295.118 265.487 295.141 265.519 295.169 265.545C295.197 265.572 295.23 265.592 295.267 265.605C295.303 265.617 295.342 265.623 295.38 265.62C295.46 265.612 295.533 265.575 295.587 265.516C295.641 265.457 295.67 265.38 295.67 265.3C295.621 264.803 295.469 264.322 295.225 263.886C294.98 263.451 294.648 263.071 294.25 262.77H294.26ZM290.26 268.57C289.024 268.676 287.78 268.591 286.57 268.32C286.499 268.317 286.429 268.339 286.373 268.383C286.316 268.427 286.278 268.489 286.263 268.559C286.249 268.629 286.26 268.701 286.294 268.764C286.328 268.826 286.383 268.874 286.45 268.9C287.367 269.098 288.302 269.202 289.24 269.21C289.601 269.21 289.961 269.19 290.32 269.15C290.397 269.142 290.468 269.104 290.516 269.044C290.565 268.984 290.588 268.907 290.58 268.83C290.572 268.753 290.534 268.682 290.474 268.634C290.414 268.585 290.337 268.562 290.26 268.57ZM285.91 258C285.12 257.54 284.38 257.08 283.66 256.58C283.628 256.552 283.591 256.532 283.551 256.519C283.51 256.507 283.468 256.503 283.426 256.508C283.384 256.514 283.344 256.528 283.308 256.55C283.272 256.571 283.241 256.601 283.217 256.635C283.193 256.67 283.176 256.709 283.168 256.751C283.16 256.792 283.161 256.835 283.171 256.876C283.181 256.917 283.199 256.955 283.225 256.989C283.251 257.022 283.283 257.05 283.32 257.07C284.06 257.57 284.81 258.07 285.62 258.51C285.669 258.526 285.721 258.526 285.77 258.51C285.822 258.511 285.873 258.498 285.917 258.472C285.961 258.445 285.997 258.406 286.02 258.36C286.047 258.297 286.052 258.226 286.031 258.16C286.011 258.094 285.968 258.037 285.91 258ZM284.74 267.82C284.147 267.623 283.567 267.392 283 267.13C282.59 266.94 282.19 266.73 281.78 266.51C281.71 266.476 281.631 266.47 281.557 266.492C281.483 266.515 281.42 266.564 281.38 266.63C281.361 266.664 281.349 266.701 281.345 266.74C281.34 266.779 281.344 266.818 281.355 266.855C281.366 266.893 281.385 266.927 281.41 266.957C281.435 266.987 281.465 267.012 281.5 267.03C281.92 267.26 282.34 267.47 282.75 267.66C283.336 267.932 283.937 268.173 284.55 268.38H284.64C284.702 268.382 284.764 268.364 284.814 268.328C284.865 268.292 284.902 268.24 284.92 268.18C284.94 268.11 284.932 268.035 284.898 267.97C284.865 267.905 284.809 267.855 284.74 267.83V267.82ZM292.93 262.4C292.979 262.4 293.027 262.388 293.071 262.365C293.114 262.342 293.152 262.31 293.18 262.27C293.202 262.238 293.218 262.202 293.226 262.164C293.234 262.126 293.235 262.086 293.227 262.048C293.22 262.01 293.205 261.973 293.183 261.941C293.161 261.909 293.133 261.881 293.1 261.86C292.703 261.589 292.292 261.339 291.87 261.11C291.48 260.9 291.08 260.69 290.67 260.49C290.635 260.471 290.597 260.46 290.558 260.456C290.519 260.452 290.479 260.457 290.442 260.469C290.405 260.481 290.37 260.501 290.341 260.527C290.311 260.553 290.287 260.584 290.27 260.62C290.238 260.689 290.234 260.768 290.258 260.841C290.282 260.913 290.333 260.974 290.4 261.01C290.81 261.22 291.2 261.42 291.58 261.63C292.01 261.87 292.41 262.11 292.77 262.36C292.818 262.39 292.873 262.407 292.93 262.41V262.4ZM294.63 266.48C294.345 266.827 294.008 267.127 293.63 267.37C293.125 267.708 292.576 267.977 292 268.17C291.928 268.199 291.869 268.254 291.836 268.325C291.802 268.395 291.797 268.476 291.82 268.55C291.841 268.608 291.878 268.658 291.928 268.694C291.979 268.73 292.038 268.749 292.1 268.75H292.19C292.822 268.543 293.421 268.246 293.97 267.87C294.39 267.597 294.765 267.259 295.08 266.87C295.129 266.807 295.151 266.728 295.142 266.65C295.132 266.571 295.092 266.499 295.03 266.45C294.969 266.408 294.896 266.389 294.823 266.396C294.749 266.404 294.681 266.437 294.63 266.49V266.48ZM280.58 265.83C279.84 265.39 279.06 264.91 278.23 264.39C278.198 264.368 278.162 264.353 278.125 264.346C278.087 264.339 278.048 264.339 278.01 264.348C277.973 264.356 277.937 264.372 277.906 264.395C277.875 264.418 277.849 264.447 277.83 264.48C277.808 264.512 277.793 264.549 277.786 264.588C277.778 264.626 277.779 264.666 277.787 264.704C277.796 264.743 277.812 264.779 277.835 264.811C277.857 264.843 277.886 264.87 277.92 264.89C278.75 265.41 279.53 265.89 280.28 266.34C280.329 266.354 280.381 266.354 280.43 266.34C280.482 266.34 280.532 266.327 280.578 266.303C280.623 266.278 280.662 266.243 280.69 266.2C280.714 266.136 280.716 266.066 280.696 266.001C280.676 265.936 280.635 265.88 280.58 265.84V265.83ZM270.47 246.83C269.95 246.53 269.44 246.26 268.94 246.02C268.45 245.78 267.89 245.53 267.28 245.29C267.244 245.275 267.205 245.268 267.167 245.269C267.128 245.27 267.089 245.279 267.054 245.294C267.019 245.31 266.987 245.333 266.96 245.362C266.934 245.39 266.913 245.423 266.9 245.46C266.884 245.495 266.875 245.533 266.875 245.572C266.874 245.611 266.882 245.649 266.897 245.685C266.912 245.721 266.934 245.753 266.962 245.78C266.99 245.806 267.024 245.827 267.06 245.84C267.66 246.08 268.21 246.32 268.68 246.55C269.15 246.78 269.68 247.05 270.18 247.34C270.226 247.354 270.274 247.354 270.32 247.34C270.372 247.342 270.423 247.33 270.469 247.305C270.515 247.281 270.553 247.244 270.58 247.2C270.605 247.136 270.609 247.066 270.589 247C270.568 246.935 270.527 246.878 270.47 246.84V246.83ZM273.47 261.51L272.25 260.84C271.81 260.6 271.31 260.36 270.77 260.12C270.702 260.103 270.629 260.11 270.566 260.141C270.502 260.172 270.452 260.225 270.423 260.289C270.395 260.354 270.39 260.426 270.409 260.494C270.429 260.562 270.471 260.621 270.53 260.66C271.06 260.89 271.53 261.13 271.97 261.36C272.41 261.59 272.79 261.81 273.18 262.03C273.226 262.04 273.274 262.04 273.32 262.03C273.373 262.03 273.424 262.016 273.47 261.99C273.516 261.963 273.554 261.926 273.58 261.88C273.608 261.818 273.614 261.75 273.597 261.684C273.581 261.619 273.543 261.561 273.49 261.52L273.47 261.51ZM277.04 263.65C276.3 263.19 275.51 262.71 274.67 262.21C274.637 262.19 274.601 262.177 274.563 262.171C274.525 262.165 274.486 262.167 274.449 262.176C274.412 262.186 274.377 262.202 274.346 262.225C274.315 262.248 274.29 262.277 274.27 262.31C274.229 262.378 274.217 262.459 274.236 262.535C274.254 262.612 274.303 262.678 274.37 262.72C275.21 263.21 275.99 263.72 276.73 264.15C276.779 264.163 276.831 264.163 276.88 264.15C276.932 264.15 276.982 264.137 277.028 264.113C277.073 264.088 277.112 264.053 277.14 264.01C277.165 263.95 277.17 263.885 277.156 263.822C277.141 263.759 277.108 263.703 277.06 263.66L277.04 263.65ZM282.37 256.34C282.416 256.339 282.461 256.326 282.501 256.304C282.541 256.281 282.575 256.249 282.6 256.21C282.623 256.179 282.64 256.144 282.65 256.107C282.66 256.069 282.662 256.03 282.656 255.992C282.651 255.954 282.637 255.917 282.617 255.884C282.598 255.851 282.571 255.823 282.54 255.8L281.5 255L280.17 253.93C280.114 253.878 280.041 253.849 279.965 253.849C279.889 253.849 279.816 253.878 279.76 253.93C279.732 253.957 279.709 253.99 279.693 254.026C279.678 254.062 279.67 254.101 279.67 254.14C279.67 254.179 279.678 254.218 279.693 254.254C279.709 254.29 279.732 254.323 279.76 254.35L281.1 255.42C281.46 255.71 281.82 255.99 282.17 256.25C282.198 256.281 282.232 256.306 282.27 256.323C282.307 256.34 282.348 256.349 282.39 256.35L282.37 256.34ZM269.25 259.49C268.35 259.14 267.34 258.78 266.17 258.4C266.094 258.377 266.013 258.384 265.942 258.42C265.872 258.455 265.817 258.516 265.79 258.59C265.768 258.664 265.775 258.744 265.81 258.813C265.846 258.882 265.907 258.935 265.98 258.96C267.15 259.34 268.15 259.69 269.04 260.04H269.15C269.209 260.039 269.266 260.021 269.315 259.987C269.363 259.953 269.4 259.905 269.42 259.85C269.439 259.783 269.435 259.712 269.408 259.648C269.38 259.584 269.332 259.532 269.27 259.5L269.25 259.49Z" fill="white"/>
<path d="M371.45 424C378.9 420.35 386.73 425.16 389.85 427.6C394.11 430.93 397.28 436.34 402.19 439.37C407.1 442.4 411.61 444.37 414.25 446.23C416.89 448.09 418.97 451.12 414.67 453.23C410.37 455.34 405.67 453.69 402.67 451.89C399.67 450.09 397.27 447.89 390.89 445.24C384.51 442.59 377.65 439.9 373.77 437.24C369.89 434.58 363.82 427.68 371.45 424Z" fill="#E0E0E0"/>
<path opacity="0.8" d="M290.54 335C297.27 331.71 304.34 336.05 307.16 338.26C311.01 341.26 313.87 346.15 318.31 348.89C322.75 351.63 326.82 353.37 329.21 355.09C331.6 356.81 333.48 359.51 329.58 361.41C325.68 363.31 321.44 361.82 318.77 360.2C316.1 358.58 313.89 356.6 308.12 354.2C302.35 351.8 296.12 349.38 292.65 346.98C289.18 344.58 283.65 338.37 290.54 335Z" fill="#F87171"/>
<path d="M381.65 392C375.34 396.3 383.65 400.82 387.89 402.62C393.66 405.08 403.03 406.91 408.27 409.74C413.51 412.57 416.86 415.18 420.16 416.74C423.46 418.3 428.63 419.46 432.28 416.98C435.93 414.5 433.07 411.78 429.96 410.07C426.85 408.36 423.06 406.95 418.44 403.26C413.82 399.57 409.19 395.62 404.6 393.38C400.01 391.14 388.11 387.62 381.65 392Z" fill="#E0E0E0"/>
<path d="M464.81 350.16L453.35 356.77L434.49 345.89V206.01L421.92 198.75L443.49 182.17L454.94 175.55L477.38 217.54L465.92 224.15L464.81 223.51V350.16Z" fill="#F87171"/>
<path opacity="0.8" d="M464.81 350.16L453.35 356.77L434.49 345.89V206.01L421.92 198.75L443.49 182.17L454.94 175.55L477.38 217.54L465.92 224.15L464.81 223.51V350.16Z" fill="white"/>
<path d="M453.35 356.77L434.49 345.89V206.01L421.92 198.75L443.49 182.17L465.92 224.15L453.35 216.89V356.77Z" fill="#F87171"/>
<path opacity="0.7" d="M453.35 356.77L434.49 345.89V206.01L421.92 198.75L443.49 182.17L465.92 224.15L453.35 216.89V356.77Z" fill="white"/>
<path d="M464.81 350.16L453.35 356.77V216.89L464.81 223.51V350.16Z" fill="#F87171"/>
<path opacity="0.5" d="M464.81 350.16L453.35 356.77V216.89L464.81 223.51V350.16Z" fill="white"/>
<path d="M206.2 418.86L217.37 425.31L235.76 414.69V319.48L248.02 312.4L226.99 296.23L215.82 289.78L193.94 330.72L205.11 337.17L206.2 336.54V418.86Z" fill="#455A64"/>
<path d="M217.37 425.31L235.76 414.69V319.48L248.02 312.4L226.99 296.23L205.11 337.17L217.37 330.09V425.31Z" fill="#37474F"/>
<path d="M206.2 418.86L217.37 425.31V330.09L206.2 336.54V418.86Z" fill="#263238"/>
<path d="M165.75 416.71L174.12 421.54L187.9 413.58V360.43L197.09 355.13L181.32 343.01L172.95 338.18L156.56 368.86L164.93 373.69L165.75 373.22V416.71Z" fill="#F87171"/>
<path opacity="0.1" d="M164.93 373.69L181.32 343.01L172.95 338.18L156.56 368.86L164.93 373.69Z" fill="white"/>
<path d="M174.12 421.54L187.9 413.58V360.43L197.09 355.13L181.32 343.01L164.93 373.69L174.12 368.39V421.54Z" fill="#F87171"/>
<path opacity="0.1" d="M174.12 421.54L187.9 413.58V360.43L197.09 355.13L181.32 343.01L164.93 373.69L174.12 368.39V421.54Z" fill="black"/>
<path opacity="0.3" d="M165.75 416.71L174.12 421.54V368.39L165.75 373.22V416.71Z" fill="black"/>
<path d="M38.29 318.04V182.4L36.46 183.46L26.22 177.54L47.5 137.71L58.07 143.81L78.24 159.33L66.51 166.1V313.85L48.78 324.09L38.29 318.04Z" fill="#F5F5F5"/>
<path d="M47.8 138.73L57.62 144.4L76.92 159.24L66.51 165.24L65.78 165.67V313.42L48.78 323.24L39 317.61V181.12L36.78 182.4L36.43 182.6L27.18 177.26L47.8 138.73ZM47.21 136.73L25.21 177.87L36.44 184.35L37.53 183.72V318.46L48.76 324.94L67.23 314.28V166.53L79.55 159.42L58.44 143.17L47.21 136.69V136.73Z" fill="#E6E6E6"/>
<path d="M48.78 324.94L67.25 314.28V166.53L79.57 159.42L58.44 143.17L36.46 184.31L48.78 177.2V324.94Z" fill="#EBEBEB"/>
<path d="M37.55 318.46L48.78 324.94V177.2L37.55 183.68V318.46Z" fill="#E0E0E0"/>
<path d="M86.89 306.08V215.93L85.16 216.93L75.48 211.34L95.6 173.69L105.58 179.46L124.65 194.12L113.56 200.53V302.13L96.8 311.81L86.89 306.08Z" fill="#F5F5F5"/>
<path d="M95.87 174.66L105.15 180.02L123.4 194.02L113.56 199.7L112.87 200.1V301.7L96.8 311L87.58 305.68V214.68L85.48 215.89L85.15 216.08L76.4 211.03L95.86 174.62M95.31 172.69L74.55 211.61L85.16 217.73L86.16 217.14V306.49L96.77 312.61L114.23 302.53V200.93L125.87 194.21L105.87 178.85L95.26 172.73L95.31 172.69Z" fill="#E6E6E6"/>
<path d="M96.8 312.61L114.26 302.53V200.93L125.9 194.21L105.93 178.85L85.16 217.73L96.8 211.01V312.61Z" fill="#EBEBEB"/>
<path d="M86.19 306.49L96.8 312.61V211.01L86.19 217.13V306.49Z" fill="#E0E0E0"/>
<path d="M125 354.05H63L69.41 380.77C69.9 383.99 72.27 387.14 76.54 389.6C86.19 395.17 101.83 395.17 111.47 389.6C116.07 386.95 118.47 383.51 118.67 380.03L125 354.05Z" fill="#37474F"/>
<path d="M117.41 372.37C118.725 371.611 119.973 370.742 121.14 369.77L124.63 355.49C122.818 357.483 120.698 359.171 118.35 360.49C105.26 368.04 84.29 368.23 70.76 361.1L72.34 354.74L71.85 354.07H63L69.41 380.78C69.9 384 72.27 387.15 76.54 389.61C83.41 393.61 93.32 394.71 101.94 393.02C86.49 394.17 75.88 387.42 74.29 381.19C73.66 378.7 72.55 373.19 72.55 373.19C85.42 379.74 105.08 379.48 117.41 372.37Z" fill="#263238"/>
<path d="M128.2 346.15C127.845 347.881 127.14 349.521 126.13 350.97C124.101 353.84 121.439 356.204 118.35 357.88C104.89 365.66 83.05 365.66 69.58 357.88C66.494 356.213 63.8322 353.859 61.8 351C60.7968 349.548 60.0962 347.909 59.74 346.18C58.54 340.34 61.83 334.25 69.59 329.76C83.06 321.98 104.9 321.98 118.36 329.76C126.11 334.22 129.4 340.31 128.2 346.15Z" fill="#455A64"/>
<path d="M126.13 351C124.101 353.87 121.439 356.234 118.35 357.91C104.89 365.69 83.05 365.69 69.58 357.91C66.4908 356.234 63.8287 353.87 61.8 351C60.7968 349.548 60.0963 347.909 59.74 346.18L61.27 356.69C61.97 360.92 65.12 365.05 70.74 368.29C83.58 375.69 104.37 375.69 117.21 368.29C122.75 365.09 125.9 361.01 126.65 356.84L126.73 356.3L128.21 346.18C127.852 347.911 127.144 349.551 126.13 351Z" fill="#37474F"/>
<path d="M114.29 332.07C103.06 325.59 84.87 325.59 73.65 332.07C67.3 335.75 64.55 340.7 65.38 345.48C66.02 349.15 68.78 352.72 73.65 355.48C84.87 361.96 103.06 361.96 114.29 355.48C119.15 352.67 121.91 349.1 122.55 345.48C123.39 340.7 120.64 335.75 114.29 332.07Z" fill="#263238"/>
<path d="M67.28 349.92C68.959 352.241 71.1353 354.158 73.65 355.53C84.87 362.01 103.06 362.01 114.29 355.53C116.805 354.158 118.981 352.241 120.66 349.92C120.58 346.04 117.98 342.18 112.85 339.22C102.42 333.22 85.51 333.22 75.09 339.22C70 342.18 67.36 346 67.28 349.92Z" fill="#FAFAFA"/>
<path d="M78.38 250.84L94.75 267.43L78.21 257.2C77.5485 262.882 77.887 268.635 79.21 274.2C79.21 274.2 87.21 280.4 91.68 285.54L78.9 278.57C78.9 278.57 76.9 287.31 78.9 301.27C79.44 304.93 82.59 312.17 84.48 317.52C85.3425 319.993 86.3715 322.406 87.56 324.74L87.78 325.18C91.0667 323.8 94.4667 322.487 97.98 321.24C100.7 316.96 104.88 306.08 106.98 297.02C115.15 262.32 90.98 238.91 70.45 229.54C70.52 229.54 76.74 239.65 78.38 250.84Z" fill="#65D47D"/>
<path d="M93.35 254.17C96.6 258.34 98.17 263.5 99.23 268.6C100.252 273.738 100.708 278.973 100.59 284.21C100.469 294.695 97.8682 305.003 93 314.29C92.9671 314.349 92.9464 314.414 92.9392 314.481C92.932 314.547 92.9384 314.615 92.958 314.68C92.9776 314.744 93.0101 314.804 93.0534 314.856C93.0967 314.907 93.1499 314.949 93.21 314.98C93.3294 315.044 93.4691 315.057 93.5985 315.018C93.7279 314.978 93.8364 314.889 93.9 314.77C98.6657 305.294 101.123 294.826 101.07 284.22C101.102 278.95 100.559 273.692 99.45 268.54C98.33 263.45 96.67 258.29 93.35 254.17Z" fill="white"/>
<path d="M153.23 271C152.8 271.62 145.74 281.79 135.67 301.24L116.36 306.24L131 307.41L124.37 320.41L105.45 326.18L120.74 327.24C120.74 327.24 117.92 342.33 107.74 349.46C102.1 353.39 99.52 353.71 97.29 352.64C94.56 351.34 92.94 347.23 91.29 341.04C89.64 334.85 90.67 321.93 95.47 309.04C96.7788 305.586 98.5736 302.337 100.8 299.39C113.62 282.19 139.88 272 153.23 271Z" fill="#65D47D"/>
<path opacity="0.1" d="M153.23 271C152.8 271.62 145.74 281.79 135.67 301.24L116.36 306.24L131 307.41L124.37 320.41L105.45 326.18L120.74 327.24C120.74 327.24 117.92 342.33 107.74 349.46C102.1 353.39 99.52 353.71 97.29 352.64C94.56 351.34 92.94 347.23 91.29 341.04C89.64 334.85 90.67 321.93 95.47 309.04C96.7788 305.586 98.5736 302.337 100.8 299.39C113.62 282.19 139.88 272 153.23 271Z" fill="black"/>
<path d="M133.31 279.3C123.59 284.69 114.56 291.68 107.79 300.66C104.35 305.119 101.63 310.089 99.73 315.39C97.9202 320.703 96.9979 326.277 97 331.89C96.9893 331.895 96.9802 331.902 96.9738 331.912C96.9674 331.922 96.964 331.933 96.964 331.945C96.964 331.957 96.9674 331.968 96.9738 331.978C96.9802 331.988 96.9893 331.995 97 332C97.0036 331.992 97.0055 331.984 97.0055 331.975C97.0055 331.966 97.0036 331.958 97 331.95C97.5423 326.436 98.7822 321.012 100.69 315.81C102.587 310.619 105.188 305.713 108.42 301.23C114.94 292.23 123.74 285.1 133.29 279.45C133.296 279.445 133.301 279.439 133.305 279.432C133.308 279.425 133.31 279.418 133.31 279.41C133.31 279.402 133.308 279.395 133.305 279.388C133.301 279.381 133.296 279.375 133.29 279.37C133.301 279.362 133.308 279.351 133.312 279.338C133.315 279.326 133.315 279.312 133.31 279.3Z" fill="white"/>
<path d="M32.66 267.58C34.6069 267.711 36.5439 267.962 38.46 268.33C46.0049 269.846 53.3338 272.288 60.28 275.6C62.86 276.81 65.43 278.15 67.95 279.6C69.21 280.333 70.4567 281.1 71.69 281.9C77.7803 285.753 83.1874 290.593 87.69 296.22C89.7752 298.92 91.5153 301.869 92.87 305C93.04 305.4 93.23 305.8 93.39 306.21C93.8 307.27 94.16 308.3 94.5 309.32C98.5 320.86 98.27 328.61 97.25 337.15C96.46 343.77 93.57 351.15 92.18 352.31C91.9903 352.463 91.7819 352.59 91.56 352.69C89.56 353.74 86.62 352.79 81.25 349.17C70.5 341.93 67.4 325.58 67.4 325.58L83.3 324.22L63.51 318.54L56.39 305.1L71.66 303.62L51.48 298.78C40.66 278.71 33.14 268.25 32.68 267.61L32.66 267.58Z" fill="#65D47D"/>
<path d="M38.46 268.33C46.0049 269.846 53.3338 272.288 60.28 275.6C62.86 276.81 65.43 278.15 67.95 279.6C69.21 280.333 70.4567 281.1 71.69 281.9C77.7803 285.753 83.1874 290.593 87.69 296.22C89.7752 298.92 91.5153 301.869 92.87 305C93.04 305.4 93.23 305.8 93.39 306.21C93.8 307.27 94.16 308.3 94.5 309.32C98.5 320.86 98.27 328.61 97.25 337.15C96.46 343.77 93.57 351.15 92.18 352.31C91.9903 352.463 91.7819 352.59 91.56 352.69C91.1601 352.89 90.7257 353.013 90.28 353.05C92.53 342.86 89.63 316.34 82.85 304.96C75.85 293.13 58.23 275.36 32.67 267.61C34.6126 267.735 36.546 267.975 38.46 268.33Z" fill="#65D47D"/>
<path opacity="0.2" d="M38.46 268.33C46.0049 269.846 53.3338 272.288 60.28 275.6C62.86 276.81 65.43 278.15 67.95 279.6C69.21 280.333 70.4567 281.1 71.69 281.9C77.7803 285.753 83.1874 290.593 87.69 296.22C89.7752 298.92 91.5153 301.869 92.87 305C93.04 305.4 93.23 305.8 93.39 306.21C93.8 307.27 94.16 308.3 94.5 309.32C98.5 320.86 98.27 328.61 97.25 337.15C96.46 343.77 93.57 351.15 92.18 352.31C91.9903 352.463 91.7819 352.59 91.56 352.69C91.1601 352.89 90.7257 353.013 90.28 353.05C92.53 342.86 89.63 316.34 82.85 304.96C75.85 293.13 58.23 275.36 32.67 267.61C34.6126 267.735 36.546 267.975 38.46 268.33Z" fill="black"/>
<path d="M90.36 353.05C91.4815 345.47 91.6193 337.776 90.77 330.16C90.0143 322.498 88.0675 315.002 85 307.94C81.7 300.94 76.62 294.94 71.13 289.6C65.5454 284.325 59.2798 279.822 52.5 276.21C52.4867 276.201 52.4711 276.196 52.455 276.196C52.439 276.196 52.4233 276.201 52.41 276.21C52.4038 276.215 52.3988 276.221 52.3953 276.228C52.3918 276.235 52.39 276.242 52.39 276.25C52.39 276.258 52.3918 276.266 52.3953 276.273C52.3988 276.279 52.4038 276.286 52.41 276.29C58.8127 280.407 64.7801 285.165 70.22 290.49C72.9609 293.11 75.517 295.917 77.87 298.89C80.2809 301.802 82.3572 304.975 84.06 308.35C87.1822 315.281 89.2064 322.656 90.06 330.21C91.0782 337.774 91.1118 345.438 90.16 353.01C90.16 353.01 90.16 353.07 90.16 353.08C90.164 353.107 90.1783 353.131 90.1999 353.146C90.2215 353.162 90.2485 353.169 90.275 353.165C90.3015 353.161 90.3254 353.147 90.3413 353.125C90.3573 353.104 90.364 353.077 90.36 353.05Z" fill="white"/>
<path d="M264.86 43.9999C269.42 41.3599 275.73 41.7399 282.7 45.7599C296.62 53.7599 307.91 73.3499 307.9 89.4299C307.9 97.4999 305.06 103.16 300.47 105.78C299.27 106.46 294.47 109.37 293.24 110.07C288.68 112.71 282.38 112.33 275.42 108.31C261.49 100.31 250.21 80.7199 250.21 64.6399C250.21 56.6399 253.03 50.9599 257.59 48.3299" fill="#F87171"/>
<path opacity="0.5" d="M264.86 43.9999C269.42 41.3599 275.73 41.7399 282.7 45.7599C296.62 53.7599 307.91 73.3499 307.9 89.4299C307.9 97.4999 305.06 103.16 300.47 105.78C299.27 106.46 294.47 109.37 293.24 110.07C288.68 112.71 282.38 112.33 275.42 108.31C261.49 100.31 250.21 80.7199 250.21 64.6399C250.21 56.6399 253.03 50.9599 257.59 48.3299" fill="white"/>
<path opacity="0.2" d="M304.23 72.1299C306.541 77.6005 307.787 83.4621 307.9 89.3999L275.42 108.28C270.334 105.211 265.881 101.199 262.3 96.4599L304.23 72.1299Z" fill="white"/>
<path opacity="0.3" d="M262.3 96.4599C255.05 87.1599 250.21 75.1399 250.21 64.6099C250.21 56.6099 253.03 50.9299 257.59 48.2999L264.86 43.9999C269.42 41.3599 275.73 41.7399 282.7 45.7599C291.81 51.0299 299.8 61.2299 304.23 72.1599L262.3 96.4599Z" fill="white"/>
<path d="M275.42 50.05C289.34 58.1 300.63 77.64 300.63 93.72C300.63 109.8 289.34 116.32 275.42 108.28C261.5 100.24 250.19 80.69 250.21 64.61C250.23 48.53 261.51 42 275.42 50.05Z" fill="#F87171"/>
<path d="M275.42 57.33C285.86 63.33 294.33 78.02 294.33 90.09C294.33 102.16 285.86 107.09 275.42 101.01C264.98 94.93 256.51 80.31 256.51 68.25C256.51 56.19 265 51.29 275.42 57.33Z" fill="#FAFAFA"/>
<path d="M275.42 64C282.7 68.2 288.6 78.42 288.6 86.83C288.6 95.24 282.69 98.64 275.42 94.43C268.15 90.22 262.24 80 262.24 71.56C262.24 63.12 268.14 59.74 275.42 64Z" fill="#F87171"/>
<path d="M275.42 70.74C277.543 72.1257 279.309 73.9924 280.576 76.1885C281.843 78.3846 282.574 80.8484 282.71 83.38C282.71 88.03 279.45 89.92 275.42 87.59C273.302 86.2102 271.537 84.352 270.269 82.165C269.001 79.9781 268.265 77.5238 268.12 75C268.12 70.3 271.39 68.42 275.42 70.74Z" fill="#FAFAFA"/>
<path d="M275.42 75.61C276.316 76.1942 277.062 76.9812 277.597 77.9072C278.132 78.8332 278.441 79.8722 278.5 80.94C278.5 82.94 277.12 83.7 275.42 82.72C274.524 82.1359 273.778 81.3489 273.243 80.4229C272.708 79.4969 272.399 78.4579 272.34 77.39C272.34 75.43 273.72 74.63 275.42 75.61Z" fill="#F87171"/>
<path d="M240 99.6299C240 99.6299 239.38 107.4 235.79 109.47C232.2 111.54 230.26 105.25 232.58 103.91L240 99.6299Z" fill="#37474F"/>
<path d="M240 99.63C240 99.63 233 96.28 229.38 98.35C225.76 100.42 230.26 105.25 232.58 103.91L240 99.63Z" fill="#455A64"/>
<path d="M267.96 84.4L227.32 107.87L226.54 106.49L268.08 82.51L267.96 84.4Z" fill="#263238"/>
<path d="M228.28 104.94C228.677 105.169 228.998 105.511 229.201 105.923C229.403 106.334 229.48 106.797 229.42 107.252C229.36 107.707 229.167 108.133 228.864 108.478C228.562 108.823 228.164 109.071 227.721 109.19C227.277 109.309 226.809 109.293 226.375 109.146C225.94 108.999 225.559 108.726 225.28 108.362C225 107.998 224.835 107.559 224.805 107.102C224.775 106.644 224.881 106.187 225.11 105.79C225.262 105.526 225.465 105.294 225.707 105.109C225.949 104.923 226.224 104.787 226.519 104.708C226.813 104.629 227.12 104.609 227.422 104.649C227.725 104.689 228.016 104.787 228.28 104.94Z" fill="#263238"/>
<path d="M267.16 83.9099C265.68 85.9099 268.37 89.2699 268.37 89.2699L275.37 79.1699L267.16 83.9099Z" fill="#F87171"/>
<path d="M267.16 83.9099C265.68 85.9099 268.37 89.2699 268.37 89.2699L275.37 79.1699L267.16 83.9099Z" fill="#37474F"/>
<path d="M263.13 80.1899C263.13 80.1899 264.72 84.1899 267.13 83.9099L275.35 79.1699L263.13 80.1899Z" fill="#455A64"/>
<path d="M289.89 109.86C291.423 112.341 293.524 114.422 296.02 115.93C298.804 117.553 301.989 118.357 305.21 118.25C305.36 118.25 305.508 118.212 305.64 118.14C306.13 117.84 312.79 114.02 312.91 113.95C313.037 113.877 313.142 113.772 313.215 113.646C313.289 113.52 313.327 113.376 313.327 113.23C313.327 113.084 313.289 112.94 313.215 112.814C313.142 112.688 313.037 112.583 312.91 112.51C310.793 111.36 308.988 109.71 307.653 107.704C306.318 105.699 305.493 103.397 305.25 101L289.89 109.86Z" fill="#F87171"/>
<path opacity="0.3" d="M289.89 109.86C291.423 112.341 293.524 114.422 296.02 115.93C298.804 117.553 301.989 118.357 305.21 118.25C305.36 118.25 305.508 118.212 305.64 118.14C306.13 117.84 312.79 114.02 312.91 113.95C313.037 113.877 313.142 113.772 313.215 113.646C313.289 113.52 313.327 113.376 313.327 113.23C313.327 113.084 313.289 112.94 313.215 112.814C313.142 112.688 313.037 112.583 312.91 112.51C310.793 111.36 308.988 109.71 307.653 107.704C306.318 105.699 305.493 103.397 305.25 101L289.89 109.86Z" fill="white"/>
<path d="M298.05 101.52C297.607 104.519 298.096 107.582 299.45 110.295C300.803 113.008 302.957 115.24 305.62 116.69C305.776 116.784 305.897 116.925 305.966 117.094C306.034 117.262 306.046 117.448 306 117.624C305.954 117.8 305.852 117.956 305.71 118.069C305.567 118.182 305.392 118.245 305.21 118.25C301.986 118.355 298.798 117.551 296.01 115.93C289.5 111.8 288.69 106.93 288.69 106.93L298.05 101.52Z" fill="#F87171"/>
<path d="M410.73 361.25C409.39 357.35 408.67 347.78 407.31 337.45L386.84 342.37C386.84 342.37 394.63 366.07 395.57 368.42C397.12 372.29 410.73 361.25 410.73 361.25Z" fill="#FFBDA7"/>
<path d="M415.49 366.25C415.133 364.479 414.358 362.82 413.23 361.41C412.769 360.892 412.281 360.398 411.77 359.93C411.293 359.221 410.922 358.446 410.67 357.63C410.552 357.328 410.39 357.045 410.19 356.79C409.825 356.414 409.354 356.159 408.84 356.06C406.6 355.46 404.23 356.06 402.08 356.93C399.111 357.988 396.427 359.72 394.24 361.99C393.879 362.341 393.629 362.791 393.52 363.283C393.412 363.776 393.45 364.289 393.63 364.76C394.05 366.53 395.63 373.57 395.56 375.26C395.652 377.535 395.292 379.805 394.5 381.94C394.257 382.628 393.963 383.296 393.62 383.94C393.404 384.348 393.082 384.691 392.688 384.932C392.294 385.174 391.842 385.304 391.38 385.31C388.865 385.357 386.393 385.962 384.14 387.08C383.026 387.558 382.111 388.406 381.552 389.482C380.992 390.557 380.822 391.793 381.07 392.98C381.07 392.98 381.51 395.79 385.72 398.29C388.13 399.72 393.82 401.4 397.37 400.29C397.62 400.19 397.85 400.11 398.08 400C401.97 398.17 411.59 393.41 411.68 392.7C411.68 392.7 411.68 392.62 411.68 392.58C411.86 390.28 412.09 387.99 412.32 385.7C412.497 383.988 412.761 382.285 413.11 380.6C413.27 379.87 413.4 379.14 413.51 378.38C414 375.32 415.53 366.63 415.49 366.25Z" fill="#455A64"/>
<path d="M416.8 367.8C418.49 368.63 417.15 374.01 415.68 377.8C413.9 382.38 413.16 383.1 413.41 387.11C413.66 391.12 413.76 393.64 412.1 394.97C410.44 396.3 398.52 402.1 398.52 402.1C400.58 397.436 401.899 392.48 402.43 387.41C403.43 378.64 404.43 373.02 408.66 369.33C412.89 365.64 416.8 367.8 416.8 367.8Z" fill="black"/>
<path d="M381.07 393C381.07 393 383.27 397.59 391.89 399.34C397.36 400.45 400.04 397.88 400.72 391.06C401.46 383.66 402.42 374.53 405.31 370.59C408.2 366.65 412.56 365.41 415.49 366.17C416.271 366.568 416.863 367.258 417.14 368.09C417.14 368.09 413.81 365.76 409.14 369.71C405.39 372.9 404.38 380.87 403.71 387.59C403.04 394.31 402.15 402.09 396.94 402.5C391.73 402.91 384.89 400.33 381.7 397.09C381.186 396.556 380.849 395.877 380.736 395.145C380.624 394.412 380.74 393.663 381.07 393Z" fill="#399393"/>
<path d="M394 383C393.786 383.13 393.6 383.301 393.452 383.504C393.304 383.706 393.198 383.936 393.14 384.18C393.053 384.88 393.155 385.591 393.436 386.239C393.718 386.886 394.168 387.446 394.74 387.86C395.41 388.33 396.02 388.22 395.01 386.71C394.36 385.58 394.012 384.303 394 383Z" fill="#FAFAFA"/>
<path d="M395.29 379C394.995 379.258 394.8 379.612 394.74 380C394.66 380.62 395.56 383.23 396.74 383.89C397.92 384.55 397.36 383.11 396.85 382.41C396.247 381.313 395.725 380.173 395.29 379Z" fill="#FAFAFA"/>
<path d="M395.47 374.11C395.25 374.563 395.186 375.077 395.29 375.57C395.972 376.59 396.992 377.337 398.17 377.68C398.95 377.68 399.27 377.25 398.24 376.68C397.43 376.23 395.71 374.85 395.47 374.11Z" fill="#FAFAFA"/>
<path d="M405.83 189.57C407.29 198.95 407.95 206 406.29 229.45C405.55 239.77 402.45 284.21 402.45 284.21C405.157 293.564 406.758 303.203 407.22 312.93C407.82 329.14 409.03 349.05 409.03 349.05C409.03 349.05 405.62 346.76 398.92 348.68C395.475 349.807 392.455 351.956 390.26 354.84C390.26 354.84 381.8 330.18 376.94 312.42C373.55 300 371.22 295.91 369.34 278.87C367.03 257.93 363.26 228.52 363.26 228.52L351.68 189.59L405.83 189.57Z" fill="#399393"/>
<path d="M376.64 238.75C370.27 244.37 368.9 249.06 368.56 252.43C368.22 255.8 370.21 285.71 370.21 285.83C369.92 283.78 369.63 281.49 369.34 278.83C367.03 257.91 363.27 228.52 363.26 228.48L351.68 189.55H388.35L385.25 211.89C386.18 221.51 383 233.13 376.64 238.75Z" fill="#263238"/>
<path d="M335.42 349.66C335.88 351.66 336.42 353.21 334.56 355.66C332.7 358.11 328.66 359.38 324.65 359.26C321.775 359.129 319.034 358.009 316.89 356.09C314.57 354.29 312.95 352.72 312.08 351.98C311.21 351.24 307.76 350.29 304.48 349.63C301.04 348.94 294.4 347.5 291.03 342.57C287.66 337.64 288.24 333.34 288.24 333.34L335.42 349.66Z" fill="#263238"/>
<path d="M310.08 330.18C317.13 332.61 327.85 334.09 334.24 335.78C336.16 337.57 335.75 345.67 335.77 351.13C333.32 356.75 325.49 358.19 320.3 355.94C317.61 354.46 315.81 352.37 313.17 350.75C311.053 349.573 308.749 348.768 306.36 348.37C303.595 347.737 300.875 346.919 298.22 345.92C291.29 342.74 287.84 336.84 288.22 332.05C288.58 327.85 291.35 324.88 298.22 325.92C301.34 326.38 305.23 328.52 310.08 330.18Z" fill="#455A64"/>
<path d="M317.29 332C316.04 330.37 313.63 331.33 311.75 333.63C309.87 335.93 309.37 339.63 309.6 340.32C309.83 341.01 310.73 341.56 310.99 340.61C311.25 339.66 311.7 336.42 313.19 334.45C314.097 333.241 315.354 332.34 316.79 331.87L317.29 332Z" fill="#E0E0E0"/>
<path d="M308.36 329.56C307.23 327.91 304.49 328.7 302.55 330.82C300.61 332.94 299.99 335.76 300.17 336.43C300.35 337.1 301.17 337.7 301.51 336.79C302.035 334.91 302.914 333.149 304.1 331.6C305.08 330.464 306.41 329.687 307.88 329.39L308.36 329.56Z" fill="#E0E0E0"/>
<path d="M312.39 330.91C311.26 329.26 308.88 330.07 306.93 332.19C305.421 333.969 304.561 336.208 304.49 338.54C304.67 339.21 305.49 339.81 305.82 338.89C306.15 337.97 306.74 334.89 308.28 333.06C309.225 331.939 310.492 331.135 311.91 330.76L312.39 330.91Z" fill="#E0E0E0"/>
<path d="M334.46 330.18C334.46 330.41 334.17 337.66 334.17 337.66C334.17 337.66 333.51 340.5 327.22 341.3C320.93 342.1 316.34 339.72 315.14 338.04C315.14 338.04 314.37 330.53 314 327.4L334.46 330.18Z" fill="#FFBDA7"/>
<path d="M388.35 206.6C387.66 217.4 383.08 231.37 367.5 241.91C360.4 247.41 355.24 252.91 349.36 258.76C342.07 265.98 336.94 270.36 336.94 270.36C338.069 278.857 338.424 287.439 338 296C337.31 310.66 334.68 330.09 334.68 330.09C331.283 332.491 327.143 333.604 323 333.23C316.17 332.57 313.71 330.01 313.71 330.01C313.71 330.01 306.95 284.78 306.03 275.84C305.11 266.9 303.38 261.84 311.03 247.39C317.03 236.2 343.35 189.59 343.35 189.59H388.35V206.6Z" fill="#399393"/>
<path d="M252.51 206.86L233 238.14C232.875 238.339 232.817 238.572 232.832 238.806C232.847 239.041 232.936 239.264 233.085 239.446C233.234 239.627 233.436 239.757 233.664 239.817C233.891 239.877 234.131 239.864 234.35 239.78L269.06 226.78L252.51 206.86Z" fill="#FFA8A7"/>
<path d="M234.35 239.78C234.131 239.864 233.891 239.877 233.664 239.817C233.436 239.757 233.234 239.627 233.085 239.446C232.936 239.264 232.847 239.041 232.832 238.806C232.817 238.572 232.875 238.339 233 238.14L236.81 232.03C237.026 233.15 237.546 234.19 238.313 235.035C239.08 235.88 240.065 236.497 241.16 236.82L241.77 236.99L234.35 239.78Z" fill="#263238"/>
<path d="M435.92 90.4399L433.28 92.5999L430.1 95.2199L269.1 226.76C264.951 226.453 261.071 224.588 258.24 221.54C253.79 217.1 251.33 210.82 252.56 206.87L413.56 75.3899L419.65 70.3899C415.83 73.8499 432.1 93.8399 435.92 90.4399Z" fill="#F87171"/>
<path d="M425.89 98.6899L419.99 103.51C418.32 104.96 414.25 102.21 410.43 98.3099C405.35 93.1499 401.51 85.3099 403.71 83.3999L408.06 79.8399L409.64 78.5999C407.43 80.5199 411.27 88.3499 416.35 93.5199C420.01 97.2499 423.93 99.9299 425.7 98.8299C425.777 98.8059 425.844 98.7565 425.89 98.6899Z" fill="#EBEBEB"/>
<path d="M424.41 99.8799C420.55 103.26 404.29 83.1599 408.15 79.7799L414 74.9399C410.14 78.3299 426.4 98.4199 430.26 95.0399L424.41 99.8799Z" fill="#F87171"/>
<path d="M435.92 90.4399L430.1 95.2199C426.33 98.5599 410.48 79.2999 413.5 75.3899C413.555 75.3127 413.619 75.2422 413.69 75.1799L419.59 70.4099C415.83 73.8499 432.1 93.8399 435.92 90.4399Z" fill="#EBEBEB"/>
<path opacity="0.15" d="M233.15 239.5L233 238.14L255.77 218.73L423.42 81.8199C423.13 81.4299 423.18 81.2299 423.5 81.1699C427.74 86.9199 433.78 92.3399 435.92 90.4399L433.28 92.5999L430.1 95.2199L269.1 226.76L234.39 239.76C234.182 239.851 233.951 239.875 233.728 239.829C233.506 239.782 233.304 239.667 233.15 239.5Z" fill="black"/>
<path d="M460.63 70.18L435.92 90.44C434.29 91.89 430.24 89.2 426.43 85.35C421.33 80.2 417.43 72.35 419.59 70.41L444.39 50.1C449.34 46.1 458.74 55.1 461.55 62.77C462.64 65.6 462.57 68.31 460.63 70.18Z" fill="#F28F8F"/>
<path opacity="0.1" d="M452 68.6599C446.73 64.9999 442.81 57.9999 443.25 53.2199C443.259 52.4901 443.446 51.7736 443.795 51.1324C444.143 50.4912 444.643 49.9446 445.25 49.5399C450.36 47.0199 458.92 55.4799 461.58 62.7399C462.63 65.5399 462.58 68.1999 460.74 70.0699C458.85 71.5799 455.58 71.1799 452 68.6599Z" fill="black"/>
<path d="M387.59 108.71C385.23 106.71 383.91 100.43 385.1 96.9998C386.29 93.5698 391.1 85.4698 391.74 75.6598C392.38 65.8498 379.19 50.8198 367.82 51.9998C356.45 53.1798 350.4 59.4698 347.34 67.9998C345.48 73.1798 346.9 73.8998 346.18 76.8698C344.77 82.7398 343.4 90.7598 345.93 98.5898C346.464 100.305 347.465 101.836 348.822 103.013C350.179 104.19 351.837 104.964 353.61 105.25C356.03 105.731 358.513 105.812 360.96 105.49C361.114 108.024 361.134 110.564 361.02 113.1C360.996 113.973 360.645 114.806 360.035 115.432C359.426 116.058 358.603 116.432 357.73 116.48C357.73 116.48 390 110.71 387.59 108.71Z" fill="#FFBDA7"/>
<path d="M361 105.46C361 105.46 367.15 104.54 368.89 103.55C373.62 100.85 375.34 98.7698 376.39 95.8098C376.074 97.8283 375.271 99.7396 374.052 101.379C372.832 103.018 371.232 104.336 369.39 105.22C366.719 106.347 363.937 107.192 361.09 107.74L361 105.46Z" fill="#F0997A"/>
<path d="M391.43 109.23C403.43 108.12 408.59 112.23 411.6 115.76C414.61 119.29 428.18 141.76 433.6 154.43C435.79 159.56 437.01 163.6 432.32 168.22C427.32 173.14 404.25 192.67 404.25 192.67L395.79 179.38L411.9 158.18L397.9 135.18L391.43 109.23Z" fill="#F87171"/>
<path d="M398.2 111C404.27 114 408.49 126.09 409.03 135.28C409.45 142.43 407.87 151.79 406.86 165.16C406.404 171.246 406.347 177.356 406.69 183.45C407.01 189.77 407.54 200.87 407.54 200.87C407.54 200.87 401.54 213.02 379.92 215.16C348.47 218.28 335.92 202.83 335.92 202.83C335.92 202.83 338.1 195.83 338.35 169.83C338.54 150.39 336.58 131.63 340.42 124.7C342.08 122.39 342.07 120.1 346.42 118.48C349.42 117.36 363.07 114.03 368.42 112.88C386.26 109.07 391.85 107.87 398.2 111Z" fill="#7ABCDC"/>
<path d="M358 115.47C360.74 116.17 362 116.84 366.15 117.76C372.057 119.225 378.292 118.541 383.74 115.83C388.83 113.2 389.74 109.7 389.74 109.7C389.74 109.7 387.59 105.89 386.74 104.64C385.89 103.39 385.07 103.52 385.07 103.52L385.44 104.97C385.44 104.97 385.44 107.39 379.59 108.86C373.59 110.37 363.9 110.49 361.12 109.66V108.85C359.68 109.23 359.22 110.29 357.59 112.51C356.58 113.882 355.495 115.197 354.34 116.45L358 115.47Z" fill="#F87171"/>
<path d="M278.12 194.56C272.85 195.82 270.38 197.67 267.81 197.97C266.304 198.151 264.785 198.201 263.27 198.12L258.45 202C258.45 202 259.45 193.63 260.88 190.49C262.31 187.35 263.61 189.23 264.58 187.29C265.55 185.35 265.32 183.96 267.41 183.21C269.5 182.46 269.03 180.53 272.26 179.94C275.49 179.35 288.36 181.24 288.36 181.24L278.12 194.56Z" fill="#FFA8A7"/>
<path d="M347.13 118.24C333.73 121.24 330.37 124.65 324.02 136.66C316.88 150.16 308.11 167.39 308.11 167.39C308.11 167.39 289.89 174.73 279.04 178.61C275.53 179.87 268.87 196.39 274.67 196.78C274.67 196.78 304.43 191.59 313.24 189.88C323.83 187.82 325.51 185.68 331.24 176.95C336.97 168.22 350 143.37 350 143.37C350 143.37 356.16 125.2 347.13 118.24Z" fill="#F87171"/>
</svg>
